HIERARCHY
ROOT Pelvis
{
	OFFSET 0.000000 0.000000 0.000000
	CHANNELS 6 Xposition Yposition Zposition Xrotation Yrotation Zrotation
	JOINT LeftUpLeg_virtual
	{
		OFFSET 0.000000 0.000000 0.000000
		CHANNELS 3 Xrotation Yrotation Zrotation
		JOINT LeftUpLeg
		{
			OFFSET 18.735201 -5.666702 -4.541200
			CHANNELS 3 Xrotation Yrotation Zrotation
			JOINT LeftLeg
			{
				OFFSET -0.021200 -31.938179 0.493100
				CHANNELS 3 Xrotation Yrotation Zrotation
				JOINT LeftFoot
				{
					OFFSET 0.021200 -31.938179 -4.336299
					CHANNELS 3 Xrotation Yrotation Zrotation
					JOINT LeftToeBase
					{
						OFFSET 0.943001 -26.722000 15.023500
						CHANNELS 3 Xrotation Yrotation Zrotation
						End Site
						{
							OFFSET 0 0 0
						}
					}
				}
			}
		}
	}
	JOINT RightUpLeg_virtual
	{
		OFFSET 0.000000 0.000000 0.000000
		CHANNELS 3 Xrotation Yrotation Zrotation
		JOINT RightUpLeg
		{
			OFFSET -18.735201 -5.666702 -4.541200
			CHANNELS 3 Xrotation Yrotation Zrotation
			JOINT RightLeg
			{
				OFFSET 0.018946 -31.938133 0.493100
				CHANNELS 3 Xrotation Yrotation Zrotation
				JOINT RightFoot
				{
					OFFSET -0.018946 -31.938126 -4.336299
					CHANNELS 3 Xrotation Yrotation Zrotation
					JOINT RightToeBase
					{
						OFFSET -0.943001 -26.722004 15.023500
						CHANNELS 3 Xrotation Yrotation Zrotation
						End Site
						{
							OFFSET 0 0 0
						}
					}
				}
			}
		}
	}
	JOINT Hips_virtual
	{
		OFFSET 0.000000 0.000000 0.000000
		CHANNELS 3 Xrotation Yrotation Zrotation
		JOINT Hips
		{
			OFFSET -0.000000 -0.000000 -0.000000
			CHANNELS 3 Xrotation Yrotation Zrotation
			JOINT Spine
			{
				OFFSET 0.000000 10.199997 -0.299500
				CHANNELS 3 Xrotation Yrotation Zrotation
				JOINT Spine1
				{
					OFFSET 0.000000 11.900002 -1.516600
					CHANNELS 3 Xrotation Yrotation Zrotation
					JOINT Spine2
					{
						OFFSET 0.000000 13.600006 -2.842500
						CHANNELS 3 Xrotation Yrotation Zrotation
						JOINT Neck_virtual
						{
							OFFSET 0.000000 0.000000 0.000000
							CHANNELS 3 Xrotation Yrotation Zrotation
							JOINT Neck
							{
								OFFSET 0.000000 9.624100 -2.890100
								CHANNELS 3 Xrotation Yrotation Zrotation
								JOINT Head
								{
									OFFSET 0.000000 14.068802 -1.351900
									CHANNELS 3 Xrotation Yrotation Zrotation
									End Site
									{
										OFFSET 0 0 0
									}
								}
							}
						}
						JOINT LeftShoulder_virtual
						{
							OFFSET 0.000000 0.000000 0.000000
							CHANNELS 3 Xrotation Yrotation Zrotation
							JOINT LeftShoulder
							{
								OFFSET 15.263000 10.923401 -0.547700
								CHANNELS 3 Xrotation Yrotation Zrotation
								JOINT LeftArm
								{
									OFFSET 25.438599 -2.830597 -13.032500
									CHANNELS 3 Xrotation Yrotation Zrotation
									JOINT LeftForeArm
									{
										OFFSET 29.960503 0.000000 0.000000
										CHANNELS 3 Xrotation Yrotation Zrotation
										JOINT LeftHand
										{
											OFFSET 27.849251 0.000000 0.000000
											CHANNELS 3 Xrotation Yrotation Zrotation
											End Site
											{
												OFFSET 0 0 0
											}
										}
									}
								}
							}
						}
						JOINT RightShoulder_virtual
						{
							OFFSET 0.000000 0.000000 0.000000
							CHANNELS 3 Xrotation Yrotation Zrotation
							JOINT RightShoulder
							{
								OFFSET -15.263000 10.923401 -0.547700
								CHANNELS 3 Xrotation Yrotation Zrotation
								JOINT RightArm
								{
									OFFSET -25.438599 -2.830597 -13.032500
									CHANNELS 3 Xrotation Yrotation Zrotation
									JOINT RightForeArm
									{
										OFFSET -29.960503 0.000000 0.000000
										CHANNELS 3 Xrotation Yrotation Zrotation
										JOINT RightHand
										{
											OFFSET -27.849251 0.000000 0.000000
											CHANNELS 3 Xrotation Yrotation Zrotation
											End Site
											{
												OFFSET 0 0 0
											}
										}
									}
								}
							}
						}
					}
				}
			}
		}
	}
}
MOTION
Frames: 9
Frame Time: 0.03333333
0.284223 93.212227 4.448349 0.000000 0.000000 0.000000 -2.728465 3.554370 0.772045 -5.013583 11.066556 6.646041 24.178735 -4.384603 1.236074 -16.708405 1.297354 -5.626251 0.000000 0.000000 0.000000 -2.728465 3.554370 0.772045 4.133883 -4.820339 -4.148564 20.060583 -8.888822 4.252452 -19.600321 -19.448697 3.073757 0.000000 0.000000 0.000000 -2.728465 3.554370 0.772045 0.000000 0.000000 0.000000 -0.566809 -0.751004 -3.901986 1.149532 -0.103991 1.499583 0.000000 0.000000 0.000000 1.152621 -0.098084 1.497723 3.383357 0.101585 0.156566 0.000000 0.000000 0.000000 1.152621 -0.098084 1.497723 6.883882 -26.760618 -3.764300 5.911085 4.517237 -79.896356 -0.000002 -18.872940 -0.000002 0.000000 0.000000 0.000000 1.152621 -0.098084 1.497723 0.447593 -3.990811 8.744684 8.902104 19.263656 69.814096 -0.000001 13.419888 -0.000017 0.000000 0.000000 0.000000 
0.270185 93.204704 4.479317 0.000000 0.000000 0.000000 -2.701928 3.531737 0.762452 -5.012432 11.072546 6.668725 24.184387 -4.373211 1.233891 -16.742006 1.303355 -5.645352 0.000000 0.000000 0.000000 -2.701928 3.531737 0.762452 4.136783 -4.822184 -4.139444 20.045149 -8.888363 4.266068 -19.618306 -19.423571 3.062190 0.000000 0.000000 0.000000 -2.701928 3.531737 0.762452 0.000000 0.000000 0.000000 -0.564155 -0.762258 -3.903709 1.142373 -0.105479 1.505871 0.000000 0.000000 0.000000 1.145510 -0.099612 1.504005 3.370625 0.109558 0.149787 0.000000 0.000000 0.000000 1.145510 -0.099612 1.504005 6.876205 -26.741164 -3.765900 5.916046 4.497562 -79.909812 0.000002 -18.862138 0.000015 0.000000 0.000000 0.000000 1.145510 -0.099612 1.504005 0.447137 -3.992707 8.741734 8.916815 19.279765 69.800818 0.000002 13.450140 0.000014 0.000000 0.000000 0.000000 
0.255460 93.198006 4.513260 0.000000 0.000000 0.000000 -2.680859 3.512222 0.753463 -5.001030 11.078837 6.690035 24.184484 -4.363233 1.234923 -16.774846 1.309911 -5.666895 0.000000 0.000000 0.000000 -2.680859 3.512222 0.753463 4.157619 -4.825581 -4.124949 20.015705 -8.890826 4.278067 -19.635551 -19.405472 3.048567 0.000000 0.000000 0.000000 -2.680859 3.512222 0.753463 0.000000 0.000000 0.000000 -0.560513 -0.779745 -3.906434 1.139017 -0.107762 1.516219 0.000000 0.000000 0.000000 1.142232 -0.101915 1.514326 3.360550 0.114984 0.145668 0.000000 0.000000 0.000000 1.142232 -0.101915 1.514326 6.868264 -26.720786 -3.769765 5.924327 4.484678 -79.910099 0.000002 -18.854213 -0.000001 0.000000 0.000000 0.000000 1.142232 -0.101915 1.514326 0.444131 -4.009370 8.740163 8.941835 19.288171 69.773190 -0.000006 13.479138 -0.000016 0.000000 0.000000 0.000000 
0.241412 93.191719 4.549286 0.000000 0.000000 0.000000 -2.662770 3.492093 0.746415 -4.978679 11.079052 6.700870 24.177037 -4.342154 1.246482 -16.806331 1.317946 -5.695579 0.000000 0.000000 0.000000 -2.662770 3.492093 0.746415 4.186495 -4.835274 -4.111811 19.982786 -8.897278 4.292858 -19.654404 -19.384178 3.034120 0.000000 0.000000 0.000000 -2.662770 3.492093 0.746415 0.000000 0.000000 0.000000 -0.565977 -0.796710 -3.909740 1.139501 -0.109953 1.527966 0.000000 0.000000 0.000000 1.142801 -0.104127 1.526041 3.353561 0.117787 0.143510 0.000000 0.000000 0.000000 1.142801 -0.104127 1.526041 6.863712 -26.702450 -3.776576 5.915652 4.470641 -79.880565 0.000000 -18.864965 0.000015 0.000000 0.000000 0.000000 1.142801 -0.104127 1.526041 0.440766 -4.028571 8.739294 8.925570 19.299314 69.755916 0.000003 13.470421 -0.000017 0.000000 0.000000 0.000000 
0.226984 93.184624 4.585041 0.000000 0.000000 0.000000 -2.641939 3.459703 0.738768 -4.952317 11.069472 6.700629 24.169002 -4.294381 1.271676 -16.840941 1.328775 -5.736492 0.000000 0.000000 0.000000 -2.641939 3.459703 0.738768 4.202235 -4.855203 -4.111332 19.963509 -8.904628 4.318748 -19.675043 -19.332528 3.021564 0.000000 0.000000 0.000000 -2.641939 3.459703 0.738768 0.000000 0.000000 0.000000 -0.572845 -0.812786 -3.911213 1.138694 -0.112035 1.537106 0.000000 0.000000 0.000000 1.142071 -0.106243 1.535152 3.348606 0.118985 0.142652 0.000000 0.000000 0.000000 1.142071 -0.106243 1.535152 6.870894 -26.697541 -3.784125 5.864647 4.456502 -79.798965 -0.000006 -18.918309 -0.000008 0.000000 0.000000 0.000000 1.142071 -0.106243 1.535152 0.437575 -4.047693 8.737070 8.800779 19.343372 69.767876 0.000004 13.390827 -0.000006 0.000000 0.000000 0.000000 
0.211269 93.176491 4.616180 0.000000 0.000000 0.000000 -2.621356 3.403694 0.727616 -4.922125 11.046442 6.688184 24.168689 -4.204256 1.316521 -16.882771 1.343895 -5.795747 0.000000 0.000000 0.000000 -2.621356 3.403694 0.727616 4.192394 -4.886691 -4.131228 19.971932 -8.910269 4.357865 -19.693945 -19.227029 3.016563 0.000000 0.000000 0.000000 -2.621356 3.403694 0.727616 0.000000 0.000000 0.000000 -0.542250 -0.838099 -3.905911 1.124743 -0.115415 1.540028 0.000000 0.000000 0.000000 1.128220 -0.109646 1.538072 3.344797 0.119730 0.142420 0.000000 0.000000 0.000000 1.128220 -0.109646 1.538072 6.906334 -26.753187 -3.781711 5.766477 4.476475 -79.650709 0.000002 -19.020012 0.000008 0.000000 0.000000 0.000000 1.128220 -0.109646 1.538072 0.431419 -4.085453 8.733368 8.489771 19.485037 69.809574 -0.000003 13.221566 -0.000009 0.000000 0.000000 0.000000 
0.195428 93.167542 4.636314 0.000000 0.000000 0.000000 -2.611615 3.320609 0.710711 -4.886665 11.003512 6.658532 24.189185 -4.060229 1.392755 -16.934983 1.364735 -5.879041 0.000000 0.000000 0.000000 -2.611615 3.320609 0.710711 4.154712 -4.924886 -4.165100 20.019713 -8.917148 4.400118 -19.708345 -19.070202 3.024842 0.000000 0.000000 0.000000 -2.611615 3.320609 0.710711 0.000000 0.000000 0.000000 -0.430532 -0.889591 -3.887776 1.084894 -0.122428 1.533834 0.000000 0.000000 0.000000 1.088542 -0.116639 1.531929 3.342827 0.120491 0.142177 0.000000 0.000000 0.000000 1.088542 -0.116639 1.531929 6.953068 -26.850112 -3.769884 5.634197 4.531746 -79.447347 0.000003 -19.130047 0.000012 0.000000 0.000000 0.000000 1.088542 -0.116639 1.531929 0.416383 -4.175812 8.728483 7.997175 19.797469 69.818235 -0.000005 13.000971 0.000001 0.000000 0.000000 0.000000 
0.182580 93.152397 4.636120 0.000000 0.000000 0.000000 -2.611506 3.209880 0.684819 -4.880490 10.931715 6.611258 24.281679 -3.855416 1.507829 -17.015494 1.392406 -5.985320 0.000000 0.000000 0.000000 -2.611506 3.209880 0.684819 4.054978 -4.963821 -4.202396 20.156694 -8.929927 4.435264 -19.733690 -18.881372 3.050677 0.000000 0.000000 0.000000 -2.611506 3.209880 0.684819 0.000000 0.000000 0.000000 -0.214276 -1.006284 -3.856305 1.012896 -0.138371 1.513737 0.000000 0.000000 0.000000 1.016904 -0.132510 1.511960 3.342862 0.121363 0.141449 0.000000 0.000000 0.000000 1.016904 -0.132510 1.511960 6.985072 -26.925062 -3.758292 5.463088 4.550994 -79.193448 0.000003 -19.155607 0.000015 0.000000 0.000000 0.000000 1.016904 -0.132510 1.511960 0.388118 -4.345271 8.720304 7.416910 20.221339 69.646701 -0.000003 12.816497 0.000022 0.000000 0.000000 0.000000 
0.179159 93.116173 4.603916 0.000000 0.000000 0.000000 -2.588101 3.049200 0.654893 -4.972202 10.820184 6.538833 24.517169 -3.564455 1.650277 -17.156284 1.427178 -6.103881 0.000000 0.000000 0.000000 -2.588101 3.049200 0.654893 3.778864 -5.035628 -4.291464 20.520141 -8.939541 4.498964 -19.820955 -18.614965 3.100494 0.000000 0.000000 0.000000 -2.588101 3.049200 0.654893 0.000000 0.000000 0.000000 0.087793 -1.246539 -3.828951 0.920767 -0.171040 1.477696 0.000000 0.000000 0.000000 0.925535 -0.165052 1.476124 3.343255 0.122630 0.139415 0.000000 0.000000 0.000000 0.925535 -0.165052 1.476124 6.998963 -26.967484 -3.750389 5.265387 4.512645 -78.907844 0.000003 -19.092057 -0.000011 0.000000 0.000000 0.000000 0.925535 -0.165052 1.476124 0.350785 -4.575702 8.701937 6.632833 20.339267 69.184379 -0.000004 12.592479 0.000009 0.000000 0.000000 0.000000 
